<svg width="200" height="16" viewBox="0 0 200 16" fill="none" xmlns="http://www.w3.org/2000/svg">
<path d="M194.607 2.2327C191.333 5.29902 190.201 8.047 183.188 9.54573C174.555 11.392 165.962 6.98679 161.708 3.37477C160.24 2.12811 156.68 1.88839 155.309 3.37477C149.3 9.89005 135.991 8.29907 130.312 2.01117C128.388 -0.120171 124.195 0.740471 123.615 2.5101C120.424 12.2574 106.096 13.289 96.5007 6.22411C97.548 4.32195 92.0846 3.02721 90.5951 4.88909C82.5402 14.9605 66.8144 13.8353 57.6871 4.84751C56.103 3.28772 52.5542 3.83472 51.5308 5.30617C44.1129 15.9759 32.5594 10.9003 26.076 3.55603C24.8133 2.12486 21.212 2.62053 20.4508 3.97504C16.9077 10.2831 11.0705 11.4609 1.23659 13.0928C-0.615315 13.4007 -0.329268 15.2327 1.70725 15.0781C12.9748 14.2219 19.1288 13.0791 23.734 8.29582C33.1953 16.7178 46.4036 18.4381 55.2665 9.57627C66.7586 17.7767 85.2194 18.7116 94.3661 8.95521C104.526 16.8334 120.677 16.5723 127.5 7.98721C136.303 13.9061 150.002 14.611 158.866 7.98724C172.057 15.5478 199.036 17.2401 199.997 3.06684C200.117 1.37647 196.055 0.875596 194.607 2.2327Z" fill="#00B2A0"/>
</svg>
